<svg width="14" height="15" viewBox="0 0 14 15" fill="none" xmlns="http://www.w3.org/2000/svg">
<path d="M6.57784 1.06142C6.76629 0.737869 7.23371 0.737868 7.42216 1.06142L9.41868 4.48923C9.48772 4.60775 9.60339 4.6918 9.73745 4.72083L13.6144 5.56038C13.9804 5.63962 14.1248 6.08417 13.8754 6.36338L11.2323 9.32143C11.1409 9.42371 11.0967 9.5597 11.1105 9.69617L11.5101 13.6428C11.5478 14.0154 11.1697 14.2901 10.827 14.1391L7.19701 12.5395C7.07149 12.4842 6.92851 12.4842 6.80299 12.5395L3.17296 14.1391C2.83032 14.2901 2.45216 14.0154 2.48988 13.6428L2.88948 9.69617C2.9033 9.5597 2.85911 9.42371 2.76772 9.32143L0.12464 6.36338C-0.124841 6.08417 0.0196004 5.63962 0.385551 5.56038L4.26255 4.72083C4.39661 4.6918 4.51228 4.60775 4.58132 4.48923L6.57784 1.06142Z" fill="#CB3CFF"/>
</svg>
