<svg width="24" height="24" viewBox="0 0 24 24" fill="none" xmlns="http://www.w3.org/2000/svg">
<path fill-rule="evenodd" clip-rule="evenodd" d="M5.35742 9.56418C5.35742 7.78605 6.06378 6.08075 7.3211 4.82343C8.57843 3.56611 10.2837 2.85975 12.0618 2.85975C13.84 2.85975 15.5453 3.56611 16.8026 4.82343C18.0599 6.08075 18.7663 7.78605 18.7663 9.56418V13.1692L20.5113 16.6594C20.5917 16.82 20.6296 16.9985 20.6215 17.1779C20.6135 17.3574 20.5597 17.5317 20.4652 17.6845C20.3708 17.8373 20.2389 17.9634 20.082 18.0508C19.9251 18.1383 19.7485 18.1842 19.5689 18.1842H15.7723C15.5592 19.0062 15.0793 19.7341 14.4077 20.2538C13.7361 20.7735 12.911 21.0555 12.0618 21.0555C11.2127 21.0555 10.3876 20.7735 9.71601 20.2538C9.04445 19.7341 8.56447 19.0062 8.35143 18.1842H4.55481C4.3752 18.1842 4.19857 18.1383 4.0417 18.0508C3.88482 17.9634 3.7529 17.8373 3.65847 17.6845C3.56404 17.5317 3.51023 17.3574 3.50216 17.1779C3.49409 16.9985 3.53202 16.82 3.61236 16.6594L5.35742 13.1692V9.56418ZM10.403 18.1842C10.5711 18.4753 10.8129 18.7171 11.1041 18.8852C11.3953 19.0533 11.7256 19.1418 12.0618 19.1418C12.3981 19.1418 12.7284 19.0533 13.0196 18.8852C13.3108 18.7171 13.5526 18.4753 13.7207 18.1842H10.403ZM12.0618 4.7753C10.7918 4.7753 9.57369 5.27984 8.6756 6.17793C7.77751 7.07602 7.27297 8.29409 7.27297 9.56418V13.1692C7.27295 13.4665 7.20377 13.7596 7.07088 14.0255L5.95029 16.2686H18.1744L17.0538 14.0255C16.9206 13.7597 16.851 13.4665 16.8507 13.1692V9.56418C16.8507 8.29409 16.3462 7.07602 15.4481 6.17793C14.55 5.27984 13.3319 4.7753 12.0618 4.7753Z" fill="#C6C9D8"/>
</svg>
