<svg width="14" height="14" viewBox="0 0 14 14" fill="none" xmlns="http://www.w3.org/2000/svg">
<g clip-path="url(#clip0_254_4374)">
<path fill-rule="evenodd" clip-rule="evenodd" d="M2.30103 4.90642C2.30103 3.6602 2.7961 2.46501 3.67731 1.5838C4.55853 0.702581 5.75371 0.20752 6.99994 0.20752C8.24617 0.20752 9.44135 0.702581 10.3226 1.5838C11.2038 2.46501 11.6988 3.6602 11.6988 4.90642V7.43309L12.9219 9.87921C12.9782 9.99179 13.0048 10.1169 12.9991 10.2427C12.9935 10.3684 12.9558 10.4906 12.8896 10.5977C12.8234 10.7048 12.7309 10.7932 12.621 10.8544C12.511 10.9157 12.3872 10.9479 12.2614 10.9479H9.60045C9.45113 11.524 9.11473 12.0342 8.64406 12.3984C8.17339 12.7627 7.59509 12.9603 6.99994 12.9603C6.40479 12.9603 5.82649 12.7627 5.35582 12.3984C4.88514 12.0342 4.54875 11.524 4.39943 10.9479H1.73851C1.61263 10.9479 1.48884 10.9157 1.37889 10.8544C1.26894 10.7932 1.17648 10.7048 1.1103 10.5977C1.04411 10.4906 1.0064 10.3684 1.00075 10.2427C0.99509 10.1169 1.02167 9.99179 1.07798 9.87921L2.30103 7.43309V4.90642ZM5.8373 10.9479C5.95513 11.1519 6.12461 11.3214 6.3287 11.4392C6.53278 11.5571 6.76428 11.6191 6.99994 11.6191C7.23559 11.6191 7.4671 11.5571 7.67118 11.4392C7.87527 11.3214 8.04474 11.1519 8.16258 10.9479H5.8373ZM6.99994 1.55006C6.10978 1.55006 5.25607 1.90368 4.62663 2.53312C3.99719 3.16256 3.64358 4.01626 3.64358 4.90642V7.43309C3.64356 7.64141 3.59507 7.84687 3.50194 8.03321L2.71655 9.60533H11.284L10.4986 8.03321C10.4052 7.84692 10.3565 7.64146 10.3563 7.43309V4.90642C10.3563 4.01626 10.0027 3.16256 9.37324 2.53312C8.7438 1.90368 7.8901 1.55006 6.99994 1.55006Z" fill="#CB3CFF"/>
</g>
<defs>
<clipPath id="clip0_254_4374">
<rect width="14" height="14" fill="white"/>
</clipPath>
</defs>
</svg>
