<svg width="24" height="23" viewBox="0 0 24 23" fill="none" xmlns="http://www.w3.org/2000/svg">
<path d="M11.9732 21.0711C16.7339 21.0711 20.5932 17.2118 20.5932 12.4511C20.5932 7.6904 16.7339 3.8311 11.9732 3.8311C7.21257 3.8311 3.35327 7.6904 3.35327 12.4511C3.35327 17.2118 7.21257 21.0711 11.9732 21.0711Z" stroke="#C6C9D8" stroke-width="1.5" stroke-linecap="round" stroke-linejoin="round"/>
<path d="M5.2688 18.1977L3.35325 20.1133M18.6777 18.1977L20.5932 20.1133M18.6777 3.41926L19.2485 3.13384C20.0578 2.7287 20.3614 2.77563 21.005 3.41926C21.6487 4.06288 21.6946 4.36745 21.2905 5.17582L21.005 5.74665M5.2688 3.41926L4.69797 3.13384C3.88865 2.7287 3.58503 2.77563 2.94141 3.41926C2.29778 4.06288 2.25181 4.36745 2.65599 5.17582L2.94141 5.74665M11.9732 9.09886V12.93L13.8888 14.8455M11.9732 3.35221V1.91555M10.0577 1.91555H13.8888" stroke="#C6C9D8" stroke-width="1.5" stroke-linecap="round" stroke-linejoin="round"/>
</svg>
