<svg width="24" height="23" viewBox="0 0 24 23" fill="none" xmlns="http://www.w3.org/2000/svg">
<path d="M12.0751 2.15499C6.91795 2.15499 2.73682 6.33613 2.73682 11.4933C2.73682 16.6505 6.91795 20.8316 12.0751 20.8316C17.2323 20.8316 21.4134 16.6505 21.4134 11.4933C21.4134 6.33613 17.2323 2.15499 12.0751 2.15499Z" stroke="#C6C9D8" stroke-width="1.5" stroke-miterlimit="10"/>
<path d="M12.0751 2.15499C9.46803 2.15499 7.01672 6.33613 7.01672 11.4933C7.01672 16.6505 9.46803 20.8316 12.0751 20.8316C14.6822 20.8316 17.1335 16.6505 17.1335 11.4933C17.1335 6.33613 14.6822 2.15499 12.0751 2.15499Z" stroke="#C6C9D8" stroke-width="1.5" stroke-miterlimit="10"/>
<path d="M5.84949 5.26762C7.5663 6.48653 9.72758 7.2134 12.0752 7.2134C14.4228 7.2134 16.5841 6.48653 18.3009 5.26762M18.3009 17.719C16.5841 16.5001 14.4228 15.7732 12.0752 15.7732C9.72758 15.7732 7.5663 16.5001 5.84949 17.719" stroke="#C6C9D8" stroke-width="1.5" stroke-linecap="round" stroke-linejoin="round"/>
<path d="M12.0751 2.15499V20.8316M21.4134 11.4933H2.73682" stroke="#C6C9D8" stroke-width="1.5" stroke-miterlimit="10"/>
</svg>
